<svg width="35" height="31" viewBox="0 0 35 31" fill="none" xmlns="http://www.w3.org/2000/svg">
<path d="M8.00659 30.1299C8.36696 28.0928 8.73401 26.0323 9.09438 23.9719C9.89966 19.3604 10.7044 14.7495 11.5085 10.1392C12.0691 6.93757 12.6264 3.73426 13.212 0.535948C13.2487 0.337409 13.5273 0.03543 13.6975 0.03543C16.6238 0.00539888 19.5519 0.01374 22.6551 0.01374C22.1412 0.897988 21.7124 1.65878 21.262 2.40622C18.5775 6.85749 15.8764 11.2988 13.222 15.77C12.9918 16.1588 12.8583 16.8528 13.0552 17.1832C13.252 17.5135 13.916 17.7688 14.3765 17.7704C16.0332 17.7805 17.6899 17.647 19.3467 17.617C19.8407 17.5992 20.3333 17.6815 20.7948 17.8589C21.4705 18.1442 21.8092 18.663 21.5306 19.4639C20.3377 22.9041 19.1698 26.3527 17.9686 29.7896C17.8985 29.9914 17.6115 30.255 17.4247 30.2567C14.3515 30.2784 11.2783 30.2567 8.20513 30.2567C8.15842 30.245 8.1117 30.1933 8.00659 30.1299Z" fill="white"/>
<path d="M0 30.2684C0.500518 27.4488 0.984351 24.7927 1.45317 22.1333C2.14833 18.1736 2.84016 14.2134 3.52865 10.2527C4.0959 6.99764 4.65315 3.74594 5.24376 0.490903C5.2856 0.375823 5.35564 0.273071 5.44745 0.192045C5.53926 0.111019 5.64991 0.0543052 5.7693 0.0270894C7.7013 -0.00627847 9.63497 0.00706949 11.7054 0.00706949C11.4986 1.23167 11.3117 2.37952 11.1115 3.52571C10.1905 8.78893 9.26848 14.0516 8.3453 19.3137C7.733 22.7957 7.12403 26.2776 6.48671 29.7545C6.45167 29.9497 6.16471 30.2434 5.98619 30.2467C4.0325 30.2817 2.07214 30.2684 0 30.2684Z" fill="white"/>
<path d="M23.2291 0.0270924C25.5381 -0.012949 27.8555 -0.116389 30.0995 0.69445C34.142 2.14262 35.0163 5.92486 33.4713 9.68709C32.8857 11.1152 31.8463 12.1797 30.5683 13.0055C30.0511 13.3392 29.5673 13.6462 28.8432 13.2408C28.3677 12.9755 27.6553 13.119 27.048 13.1056C25.0059 13.0656 22.9605 13.0823 20.92 12.9888C19.4301 12.9221 19.1982 12.5217 19.632 11.1002C20.1943 9.25331 20.7448 7.40306 21.3421 5.56783C21.9394 3.7326 22.5867 1.9057 23.2291 0.0270924Z" fill="white"/>
<path d="M19.2032 30.3368C20.3061 28.6501 21.2754 27.1802 22.2297 25.7003C24.432 22.2935 26.6426 18.89 28.8065 15.4581C29.1535 14.9075 29.4288 14.9058 29.926 15.1728C32.0949 16.3407 33.1544 18.7982 32.8624 21.2557C32.2467 26.4494 27.8338 29.7061 22.8871 30.1182C21.7342 30.2067 20.578 30.2567 19.2032 30.3368Z" fill="white"/>
</svg>
