<svg width="11" height="18" viewBox="0 0 11 18" fill="none" xmlns="http://www.w3.org/2000/svg">
<path d="M0.390602 0.390382C0.140641 0.640418 0.000220256 0.979496 0.00022024 1.33305C0.000220225 1.6866 0.140641 2.02568 0.390602 2.27571L6.9906 8.87571L0.390601 15.4757C0.147724 15.7272 0.0133317 16.064 0.0163701 16.4136C0.0194075 16.7632 0.159633 17.0976 0.406843 17.3448C0.654054 17.592 0.988471 17.7322 1.33807 17.7353C1.68766 17.7383 2.02446 17.6039 2.27593 17.361L9.8186 9.81838C10.0686 9.56834 10.209 9.22927 10.209 8.87571C10.209 8.52216 10.0686 8.18309 9.8186 7.93305L2.27594 0.390382C2.0259 0.14042 1.68682 -3.72516e-07 1.33327 -3.8797e-07C0.979716 -4.03424e-07 0.640639 0.14042 0.390602 0.390382Z" fill="url(#paint0_linear_38_437)"/>
<defs>
<linearGradient id="paint0_linear_38_437" x1="10.209" y1="8.86766" x2="-0.27982" y2="12.0365" gradientUnits="userSpaceOnUse">
<stop stop-color="#2FFB04"/>
<stop offset="1" stop-color="#252525"/>
</linearGradient>
</defs>
</svg>
