<svg width="20" height="20" viewBox="0 0 20 20" fill="none" xmlns="http://www.w3.org/2000/svg">
<path d="M11.4286 1.42858C11.4286 0.638395 10.7902 0 10 0C9.20985 0 8.57145 0.638395 8.57145 1.42858V8.57145H1.42858C0.638395 8.57145 0 9.20985 0 10C0 10.7902 0.638395 11.4286 1.42858 11.4286H8.57145V18.5715C8.57145 19.3617 9.20985 20.0001 10 20.0001C10.7902 20.0001 11.4286 19.3617 11.4286 18.5715V11.4286H18.5715C19.3617 11.4286 20.0001 10.7902 20.0001 10C20.0001 9.20985 19.3617 8.57145 18.5715 8.57145H11.4286V1.42858Z" fill="url(#paint0_linear_136_1087)"/>
<defs>
<linearGradient id="paint0_linear_136_1087" x1="10" y1="2.63073e-07" x2="19.2277" y2="17.581" gradientUnits="userSpaceOnUse">
<stop stop-color="white"/>
<stop offset="0.75947" stop-color="#252525"/>
</linearGradient>
</defs>
</svg>
