<svg width="11" height="18" viewBox="0 0 11 18" fill="none" xmlns="http://www.w3.org/2000/svg">
<path d="M9.81838 17.345C10.0683 17.0949 10.2088 16.7559 10.2088 16.4023C10.2088 16.0488 10.0683 15.7097 9.81838 15.4596L3.21838 8.85964L9.81838 2.25964C10.0613 2.00817 10.1957 1.67137 10.1926 1.32177C10.1896 0.972173 10.0494 0.637758 9.80214 0.390546C9.55493 0.143335 9.22051 0.00311209 8.87092 7.36425e-05C8.52132 -0.00296481 8.18452 0.131427 7.93305 0.374305L0.390383 7.91697C0.140422 8.16701 1.21027e-06 8.50608 1.16391e-06 8.85964C1.11755e-06 9.21319 0.140421 9.55227 0.390383 9.8023L7.93305 17.345C8.18309 17.5949 8.52216 17.7354 8.87572 17.7354C9.22927 17.7354 9.56835 17.5949 9.81838 17.345Z" fill="url(#paint0_linear_38_440)"/>
<defs>
<linearGradient id="paint0_linear_38_440" x1="1.29714e-06" y1="8.86769" x2="10.4888" y2="5.6988" gradientUnits="userSpaceOnUse">
<stop stop-color="#2FFB04"/>
<stop offset="1" stop-color="#252525"/>
</linearGradient>
</defs>
</svg>
