<svg width="16" height="20" viewBox="0 0 16 20" fill="none" xmlns="http://www.w3.org/2000/svg">
<path d="M7.73318 7.73315C11.5766 7.73315 15.4663 6.40498 15.4663 3.86658C15.4663 1.32817 11.5766 0 7.73318 0C3.88981 0 3.05176e-05 1.32817 3.05176e-05 3.86658C3.05176e-05 6.40498 3.88981 7.73315 7.73318 7.73315Z" fill="url(#paint0_linear_136_553)"/>
<path d="M3.05176e-05 7.73309C3.05176e-05 10.2715 3.88981 11.5997 7.73318 11.5997C11.5766 11.5997 15.4663 10.2715 15.4663 7.73309V5.7998C15.4663 8.33821 11.5766 9.66638 7.73318 9.66638C3.88981 9.66638 3.05176e-05 8.33821 3.05176e-05 5.7998V7.73309Z" fill="url(#paint1_linear_136_553)"/>
<path d="M3.05176e-05 11.6C3.05176e-05 14.1384 3.88981 15.4666 7.73318 15.4666C11.5766 15.4666 15.4663 14.1384 15.4663 11.6V9.66675C15.4663 12.2052 11.5766 13.5333 7.73318 13.5333C3.88981 13.5333 3.05176e-05 12.2052 3.05176e-05 9.66675V11.6Z" fill="url(#paint2_linear_136_553)"/>
<path d="M3.05176e-05 15.467C3.05176e-05 18.0054 3.88981 19.3336 7.73318 19.3336C11.5766 19.3336 15.4663 18.0054 15.4663 15.467V13.5337C15.4663 16.0721 11.5766 17.4003 7.73318 17.4003C3.88981 17.4003 3.05176e-05 16.0721 3.05176e-05 13.5337V15.467Z" fill="url(#paint3_linear_136_553)"/>
<defs>
<linearGradient id="paint0_linear_136_553" x1="7.73318" y1="0" x2="9.06591" y2="8.32996" gradientUnits="userSpaceOnUse">
<stop stop-color="white"/>
<stop offset="1" stop-color="#252525"/>
</linearGradient>
<linearGradient id="paint1_linear_136_553" x1="7.73318" y1="5.7998" x2="8.49112" y2="12.1162" gradientUnits="userSpaceOnUse">
<stop stop-color="white"/>
<stop offset="1" stop-color="#252525"/>
</linearGradient>
<linearGradient id="paint2_linear_136_553" x1="7.73318" y1="9.66675" x2="8.49112" y2="15.9832" gradientUnits="userSpaceOnUse">
<stop stop-color="white"/>
<stop offset="1" stop-color="#252525"/>
</linearGradient>
<linearGradient id="paint3_linear_136_553" x1="7.73318" y1="13.5337" x2="8.49112" y2="19.8501" gradientUnits="userSpaceOnUse">
<stop stop-color="white"/>
<stop offset="1" stop-color="#252525"/>
</linearGradient>
</defs>
</svg>
