<svg width="16" height="12" viewBox="0 0 16 12" fill="none" xmlns="http://www.w3.org/2000/svg">
<path d="M13.5635 1.00785C12.5108 0.529607 11.399 0.190738 10.2569 0C10.1113 0.248006 9.94982 0.584208 9.8363 0.848043C8.62171 0.672158 7.3877 0.672158 6.17311 0.848043C6.05959 0.584208 5.88892 0.248006 5.75178 0C4.60846 0.187995 3.49581 0.526972 2.44364 1.00785C0.350716 4.06382 -0.215372 7.04818 0.068053 9.99183C1.29448 10.8826 2.6644 11.5615 4.11981 12C4.4466 11.5632 4.7361 11.1003 4.98532 10.616C4.50761 10.4396 4.05581 10.224 3.61848 9.96771C3.732 9.88781 3.84476 9.79961 3.9499 9.71141C6.58606 10.904 9.44088 10.904 12.0443 9.71141C12.1578 9.79961 12.2629 9.88781 12.3757 9.96771C11.9391 10.224 11.4866 10.4396 11.0096 10.616C11.2586 11.1002 11.5478 11.5632 11.8744 12C13.3303 11.5629 14.7005 10.8838 15.9261 9.99183C16.2743 6.58458 15.376 3.62359 13.5642 1.00785M5.34798 8.17589C4.55561 8.17589 3.90876 7.46353 3.90876 6.59212C3.90876 5.72071 4.53961 5.0076 5.34874 5.0076C6.14873 5.0076 6.80396 5.71996 6.7872 6.59212C6.7872 7.46353 6.14873 8.17589 5.34798 8.17589ZM10.6614 8.17514C9.86906 8.17514 9.22145 7.46278 9.22145 6.59137C9.22145 5.71996 9.8523 5.00685 10.6614 5.00685C11.4614 5.00685 12.1166 5.7192 12.1006 6.59137C12.1006 7.46278 11.4698 8.17438 10.6607 8.17438" fill="#4F4F4F"/>
</svg>
