<svg width="19" height="19" viewBox="0 0 19 19" fill="none" xmlns="http://www.w3.org/2000/svg">
<path fill-rule="evenodd" clip-rule="evenodd" d="M17.6296 10.807V15.7193C17.6296 16.501 17.3019 17.2507 16.7184 17.8034C16.135 18.3561 15.3436 18.6667 14.5185 18.6667H10.3704V10.807H17.6296ZM8.2963 10.807V18.6667H4.14815C3.32303 18.6667 2.53171 18.3561 1.94826 17.8034C1.36481 17.2507 1.03704 16.501 1.03704 15.7193V10.807H8.2963ZM6.22222 5.90878e-09C6.81072 -3.05655e-05 7.3925 0.11857 7.92889 0.347922C8.46529 0.577275 8.94404 0.912131 9.33333 1.33025C9.72263 0.912131 10.2014 0.577275 10.7378 0.347922C11.2742 0.11857 11.8559 -3.05655e-05 12.4444 5.90878e-09H12.963C13.3755 5.90878e-09 13.7712 0.155263 14.0629 0.431632C14.3546 0.708001 14.5185 1.08284 14.5185 1.47368V1.96491C14.5185 2.68112 14.3163 3.35214 13.9637 3.92982H16.5926C17.1427 3.92982 17.6702 4.13684 18.0592 4.50533C18.4481 4.87383 18.6667 5.37361 18.6667 5.89474V7.85965C18.6667 8.21726 18.5661 8.55326 18.3887 8.8421H10.3704V5.89474C10.3704 5.63417 10.2611 5.38428 10.0666 5.20004C9.87215 5.01579 9.60837 4.91228 9.33333 4.91228C9.05829 4.91228 8.79452 5.01579 8.60004 5.20004C8.40556 5.38428 8.2963 5.63417 8.2963 5.89474V8.8421H0.277926C0.0958694 8.54341 1.60195e-05 8.20457 0 7.85965V5.89474C0 5.37361 0.218518 4.87383 0.607482 4.50533C0.996446 4.13684 1.524 3.92982 2.07407 3.92982H4.70296C4.33921 3.33233 4.14786 2.65466 4.14815 1.96491V1.47368C4.14815 1.08284 4.31204 0.708001 4.60376 0.431632C4.89548 0.155263 5.29114 5.90878e-09 5.7037 5.90878e-09H6.22222ZM6.22222 1.96491C6.22222 2.48604 6.44074 2.98582 6.8297 3.35432C7.21867 3.72281 7.74622 3.92982 8.2963 3.92982C8.2963 3.4087 8.07778 2.90891 7.68881 2.54042C7.29985 2.17193 6.7723 1.96491 6.22222 1.96491ZM12.4444 1.96491C11.8944 1.96491 11.3668 2.17193 10.9779 2.54042C10.5889 2.90891 10.3704 3.4087 10.3704 3.92982C10.9204 3.92982 11.448 3.72281 11.837 3.35432C12.2259 2.98582 12.4444 2.48604 12.4444 1.96491Z" fill="url(#paint0_linear_136_528)"/>
<defs>
<linearGradient id="paint0_linear_136_528" x1="9.33333" y1="2.45535e-07" x2="17.9458" y2="16.4089" gradientUnits="userSpaceOnUse">
<stop stop-color="white"/>
<stop offset="1" stop-color="#252525"/>
</linearGradient>
</defs>
</svg>
