<svg width="13" height="13" viewBox="0 0 13 13" fill="none" xmlns="http://www.w3.org/2000/svg">
<path d="M4.33333 6.5C4.33333 7.04889 4.35789 7.58102 4.40353 8.08889H8.59647C8.64211 7.58102 8.66667 7.04889 8.66667 6.5C8.66667 5.95111 8.64211 5.41898 8.59618 4.91111H4.40411C4.35789 5.41898 4.33333 5.95111 4.33333 6.5ZM3.53398 4.91111C3.48876 5.43953 3.46631 5.96965 3.46667 6.5C3.46667 7.04484 3.48978 7.57669 3.53369 8.08889H0.195578C0.0678889 7.58044 0 7.04802 0 6.5C0 5.95198 0.0678889 5.41956 0.195578 4.91111H3.53398ZM4.50638 4.04444H8.49333C8.36507 3.16998 8.17093 2.39027 7.93029 1.7498C7.70525 1.15093 7.44813 0.695933 7.18496 0.398956C6.9212 0.100822 6.68836 0 6.5 0C6.31164 0 6.0788 0.101111 5.81476 0.398667C5.55158 0.696222 5.29447 1.15093 5.06942 1.7498C4.82878 2.39027 4.63464 3.16998 4.50609 4.04444M9.46602 4.91111C9.51022 5.42331 9.53333 5.95516 9.53333 6.5C9.53333 7.04484 9.51022 7.57669 9.46631 8.08889H12.8044C12.9321 7.58044 13 7.04802 13 6.5C13 5.95198 12.9321 5.41956 12.8044 4.91111H9.46602ZM12.5204 4.04444H9.36896C9.23318 3.06569 9.01824 2.18111 8.74178 1.44502C8.56527 0.975289 8.35958 0.554667 8.12529 0.204822C10.1244 0.719622 11.7508 2.16147 12.5199 4.04444M3.63076 4.04444H0.479844C1.24858 2.16147 2.87531 0.719622 4.87442 0.205111C4.64042 0.554667 4.43444 0.975289 4.25793 1.44502C3.98147 2.18111 3.76682 3.06569 3.63104 4.04444M3.63018 8.95556H0.479844C1.24829 10.8377 2.87358 12.2789 4.87096 12.7943C4.63696 12.4448 4.43184 12.0241 4.25562 11.555C3.97973 10.8183 3.76538 9.93431 3.63018 8.95556ZM7.93289 11.2505C8.17267 10.61 8.36622 9.83031 8.49449 8.95556H4.50551C4.63349 9.83031 4.82704 10.61 5.06711 11.2505C5.29187 11.8494 5.54869 12.3041 5.81245 12.601C6.07591 12.8986 6.30933 13 6.5 13C6.69067 13 6.92409 12.8986 7.18756 12.601C7.45131 12.3041 7.70813 11.8494 7.93289 11.2505ZM8.74438 11.5547C9.02027 10.8186 9.23462 9.93402 9.36982 8.95556H12.5202C11.7517 10.8377 10.1264 12.2789 8.12904 12.7943C8.36304 12.4448 8.56816 12.0238 8.74438 11.5547Z" fill="url(#paint0_linear_136_1033)"/>
<defs>
<linearGradient id="paint0_linear_136_1033" x1="6.5" y1="1.70997e-07" x2="12.498" y2="11.4276" gradientUnits="userSpaceOnUse">
<stop stop-color="white"/>
<stop offset="0.79384" stop-color="#252525"/>
</linearGradient>
</defs>
</svg>
