<svg width="19" height="19" viewBox="0 0 19 19" fill="none" xmlns="http://www.w3.org/2000/svg">
<path fill-rule="evenodd" clip-rule="evenodd" d="M15.5253 0.0673973L15.7796 0.0993081C16.4517 0.192049 17.3412 0.316701 17.8448 0.821293C18.2577 1.23314 18.4162 1.90327 18.5109 2.5016L18.5668 2.88653C18.6924 3.794 18.7253 4.98268 18.5109 6.30299C18.0881 8.90872 16.701 12.018 13.2177 14.4253C13.1988 14.6128 13.1978 14.8023 13.2018 14.9917L13.2117 15.2749C13.2277 15.7107 13.2436 16.1465 13.122 16.5693C12.9325 17.2275 12.2574 17.6613 11.6262 17.9724L11.317 18.119L10.9181 18.2945C10.1722 18.6116 9.16503 18.9367 8.53379 18.3045C8.15485 17.9265 7.99929 17.3721 7.87264 16.8206L7.82577 16.6142C7.77219 16.3538 7.70563 16.0962 7.62633 15.8424C7.57647 15.6961 7.52262 15.5482 7.46478 15.3986C7.40112 15.4768 7.33356 15.5516 7.26234 15.623C6.9183 15.967 6.40474 16.2073 5.98192 16.3759C5.52021 16.5584 4.99766 16.7179 4.51401 16.8496L4.26571 16.9154L3.79003 17.034L3.35924 17.1338L2.84368 17.2435L2.52157 17.3063C2.36093 17.336 2.19547 17.3262 2.03945 17.2778C1.88343 17.2293 1.74154 17.1436 1.62602 17.0281C1.5105 16.9126 1.42481 16.7707 1.37635 16.6147C1.32789 16.4587 1.31811 16.2932 1.34785 16.1326L1.43361 15.7028L1.58718 15.0067L1.71084 14.4981L1.80458 14.1391C1.93621 13.6565 2.09576 13.1339 2.27925 12.6732C2.44678 12.2494 2.68711 11.7358 3.03115 11.3918L3.11093 11.315L3.04711 11.2891C2.87666 11.2243 2.70404 11.1655 2.52955 11.1126L2.25332 11.0278C1.56125 10.8184 0.82132 10.593 0.361603 10.1323C-0.196838 9.57486 -0.00836407 8.72623 0.260884 8.0202L0.370578 7.74696L0.547086 7.34807L0.693676 7.03894C1.00481 6.4087 1.4386 5.73358 2.09676 5.54411C2.44579 5.44439 2.80877 5.43841 3.17375 5.44838L3.39314 5.45536C3.67835 5.46533 3.96255 5.4763 4.24078 5.44937C6.64806 1.9651 9.75738 0.577972 12.3631 0.155152C13.4084 -0.0162944 14.4721 -0.0458126 15.5253 0.0673973ZM5.74059 12.7071C5.58369 12.5908 5.39611 12.5232 5.2011 12.5125C5.0061 12.5019 4.81226 12.5487 4.64365 12.6473L4.53396 12.7211L4.44122 12.8038L4.31656 12.9614C4.05729 13.3364 3.9097 13.8549 3.79502 14.3396L3.68732 14.8063L3.63646 15.0187L3.82693 14.9728L4.24377 14.8771C4.82016 14.7424 5.45937 14.5679 5.85228 14.2139C6.02311 14.0432 6.12617 13.8162 6.14231 13.5752C6.15845 13.3342 6.08657 13.0956 5.94003 12.9036L5.85826 12.8098L5.83433 12.7869L5.74059 12.7071ZM12.9036 5.75253C12.7184 5.56729 12.4986 5.42034 12.2566 5.32006C12.0147 5.21979 11.7553 5.16815 11.4934 5.16811C11.2315 5.16806 10.9721 5.2196 10.7301 5.31979C10.4881 5.41998 10.2682 5.56686 10.083 5.75203C9.89773 5.9372 9.75078 6.15705 9.65051 6.39901C9.55023 6.64097 9.4986 6.90032 9.49855 7.16224C9.4985 7.42416 9.55005 7.68352 9.65024 7.92552C9.75042 8.16752 9.8973 8.38742 10.0825 8.57266C10.4564 8.94676 10.9637 9.15698 11.4927 9.15708C12.0217 9.15717 12.529 8.94713 12.9031 8.57316C13.2772 8.19918 13.4874 7.69192 13.4875 7.16295C13.4876 6.63398 13.2776 6.12663 12.9036 5.75253Z" fill="url(#paint0_linear_136_544)"/>
<defs>
<linearGradient id="paint0_linear_136_544" x1="9.33327" y1="2.45526e-07" x2="17.9453" y2="16.4085" gradientUnits="userSpaceOnUse">
<stop stop-color="white"/>
<stop offset="1" stop-color="#252525"/>
</linearGradient>
</defs>
</svg>
