<svg width="35" height="31" viewBox="0 0 35 31" fill="none" xmlns="http://www.w3.org/2000/svg">
<path d="M8.00684 30.1299C8.36721 28.0928 8.73425 26.0323 9.09463 23.9719C9.8999 19.3604 10.7046 14.7495 11.5088 10.1392C12.0694 6.93757 12.6266 3.73426 13.2122 0.535948C13.2489 0.337409 13.5275 0.03543 13.6977 0.03543C16.6241 0.00539888 19.5521 0.01374 22.6553 0.01374C22.1415 0.897988 21.7127 1.65878 21.2622 2.40622C18.5778 6.85749 15.8766 11.2988 13.2222 15.77C12.992 16.1588 12.8585 16.8528 13.0554 17.1832C13.2523 17.5135 13.9163 17.7688 14.3768 17.7704C16.0335 17.7805 17.6902 17.647 19.3469 17.617C19.841 17.5992 20.3336 17.6815 20.7951 17.8589C21.4708 18.1442 21.8095 18.663 21.5308 19.4639C20.3379 22.9041 19.1701 26.3527 17.9688 29.7896C17.8987 29.9914 17.6118 30.255 17.4249 30.2567C14.3517 30.2784 11.2786 30.2567 8.20538 30.2567C8.15866 30.245 8.11194 30.1933 8.00684 30.1299Z" fill="#2FFB04"/>
<path d="M0 30.2684C0.500518 27.4488 0.984351 24.7927 1.45317 22.1333C2.14833 18.1736 2.84016 14.2134 3.52865 10.2527C4.0959 6.99764 4.65315 3.74594 5.24376 0.490903C5.2856 0.375823 5.35564 0.273071 5.44745 0.192045C5.53926 0.111019 5.64991 0.0543052 5.7693 0.0270894C7.7013 -0.00627847 9.63497 0.00706949 11.7054 0.00706949C11.4986 1.23167 11.3117 2.37952 11.1115 3.52571C10.1905 8.78893 9.26848 14.0516 8.3453 19.3137C7.733 22.7957 7.12403 26.2776 6.48671 29.7545C6.45167 29.9497 6.16471 30.2434 5.98619 30.2467C4.0325 30.2817 2.07214 30.2684 0 30.2684Z" fill="#2FFB04"/>
<path d="M23.2286 0.0270924C25.5376 -0.012949 27.855 -0.116389 30.099 0.69445C34.1415 2.14262 35.0158 5.92486 33.4708 9.68709C32.8852 11.1152 31.8458 12.1797 30.5678 13.0055C30.0506 13.3392 29.5668 13.6462 28.8427 13.2408C28.3672 12.9755 27.6548 13.119 27.0475 13.1056C25.0054 13.0656 22.96 13.0823 20.9195 12.9888C19.4296 12.9221 19.1977 12.5217 19.6315 11.1002C20.1938 9.25331 20.7443 7.40306 21.3416 5.56783C21.9389 3.7326 22.5862 1.9057 23.2286 0.0270924Z" fill="#2FFB04"/>
<path d="M19.2031 30.3368C20.3059 28.6501 21.2753 27.1802 22.2296 25.7003C24.4319 22.2935 26.6425 18.89 28.8064 15.4581C29.1534 14.9075 29.4287 14.9058 29.9259 15.1728C32.0948 16.3407 33.1542 18.7982 32.8623 21.2557C32.2466 26.4494 27.8337 29.7061 22.8869 30.1182C21.7341 30.2067 20.5779 30.2567 19.2031 30.3368Z" fill="#2FFB04"/>
</svg>
