<svg width="145" height="128" viewBox="0 0 145 128" fill="none" xmlns="http://www.w3.org/2000/svg">
<path d="M33.7383 126.96C35.2568 118.376 36.8034 109.694 38.322 101.012C41.7152 81.5801 45.1061 62.1509 48.4947 42.7241C50.8568 29.2331 53.2049 15.7351 55.6725 2.25817C55.8272 1.42157 57.0012 0.149101 57.7183 0.149101C70.0493 0.0225576 82.3874 0.0577052 95.4636 0.0577052C93.2983 3.78372 91.4915 6.98949 89.5933 10.139C78.2817 28.8956 66.8998 47.6101 55.7147 66.451C54.7446 68.0891 54.1821 71.0137 55.0117 72.4056C55.8413 73.7976 58.6393 74.8732 60.5796 74.8803C67.5606 74.9225 74.5416 74.36 81.5226 74.2335C83.6046 74.1589 85.6802 74.5056 87.6249 75.2529C90.4721 76.455 91.8992 78.6414 90.7252 82.0159C85.6986 96.5122 80.7774 111.044 75.7157 125.526C75.4204 126.377 74.2112 127.487 73.4238 127.494C60.4742 127.586 47.5245 127.494 34.5749 127.494C34.378 127.445 34.1812 127.227 33.7383 126.96Z" fill="#2FFB04"/>
<path d="M0 127.544C2.10906 115.663 4.14782 104.471 6.12331 93.2644C9.05256 76.5793 11.9678 59.8919 14.8689 43.2022C17.2592 29.4863 19.6073 15.7844 22.096 2.06842C22.2723 1.58351 22.5674 1.15053 22.9542 0.809108C23.3411 0.467683 23.8074 0.228706 24.3105 0.114025C32.4515 -0.0265796 40.5995 0.0296656 49.324 0.0296656C48.4522 5.18984 47.6648 10.0266 46.8212 14.8564C42.9405 37.0344 39.0552 59.21 35.1651 81.3833C32.585 96.0554 30.019 110.727 27.3335 125.378C27.1858 126.201 25.9766 127.438 25.2244 127.452C16.992 127.6 8.73152 127.544 0 127.544Z" fill="#2FFB04"/>
<path d="M97.8812 0.114145C107.611 -0.0545801 117.376 -0.490453 126.832 2.92623C143.866 9.02846 147.55 24.966 141.04 40.8191C138.572 46.837 134.192 51.3222 128.807 54.8022C126.628 56.2082 124.589 57.5018 121.538 55.7934C119.534 54.6756 116.532 55.2802 113.973 55.224C105.368 55.0553 96.7493 55.1256 88.1513 54.7319C81.8734 54.4507 80.8962 52.7634 82.724 46.7737C85.0932 38.9912 87.4132 31.1947 89.93 23.4615C92.4468 15.7283 95.1745 8.03017 97.8812 0.114145Z" fill="#2FFB04"/>
<path d="M80.918 127.833C85.5649 120.725 89.6495 114.531 93.6708 108.296C102.951 93.9399 112.266 79.5983 121.384 65.1371C122.846 62.8172 124.006 62.8101 126.101 63.935C135.24 68.8561 139.705 79.2116 138.474 89.5671C135.88 111.452 117.285 125.175 96.4407 126.912C91.5828 127.284 86.7109 127.495 80.918 127.833Z" fill="#2FFB04"/>
</svg>
