<svg width="22" height="20" viewBox="0 0 22 20" fill="none" xmlns="http://www.w3.org/2000/svg">
<path d="M21.2418 6.95525C21.2418 6.95525 21.2418 7.94116 20.8303 9.23744L16.244 4.73305C15.9953 4.48841 15.6578 4.35081 15.3059 4.35051H11.232C10.9351 4.35072 10.6469 4.44867 10.4134 4.62872L8.80525 5.86502C8.69488 5.94996 8.56855 6.01269 8.43347 6.04963C8.2984 6.08656 8.15724 6.09696 8.01807 6.08025C7.8789 6.06353 7.74445 6.02002 7.62242 5.95221C7.50038 5.8844 7.39316 5.79361 7.30688 5.68505C7.13254 5.46549 7.05393 5.187 7.08827 4.9106C7.12262 4.6342 7.26711 4.38246 7.49008 4.21054L12.9773 0H14.1615C16.0393 0 17.8402 0.732783 19.168 2.03715C20.4958 3.34151 21.2418 5.1106 21.2418 6.95525ZM2.99585 9.85038C2.90731 9.76318 2.80213 9.694 2.68633 9.6468C2.57053 9.5996 2.44638 9.5753 2.32101 9.5753C2.19564 9.5753 2.07149 9.5996 1.95569 9.6468C1.83989 9.694 1.73471 9.76318 1.64617 9.85038L0.279668 11.198C0.100562 11.3746 0 11.6137 0 11.8631C0 12.1124 0.100562 12.3515 0.279668 12.5281C0.36821 12.6153 0.473394 12.6845 0.589194 12.7317C0.704994 12.7789 0.829136 12.8032 0.95451 12.8032C1.07988 12.8032 1.20403 12.7789 1.31983 12.7317C1.43563 12.6845 1.54081 12.6153 1.62935 12.5281L2.99585 11.1806C3.1749 11.0041 3.27544 10.7651 3.27544 10.5159C3.27544 10.2667 3.1749 10.0277 2.99585 9.85125M4.40837 11.6674C4.49687 11.58 4.60209 11.5106 4.71798 11.4633C4.83387 11.4159 4.95815 11.3916 5.08366 11.3916C5.20917 11.3916 5.33344 11.4159 5.44933 11.4633C5.56522 11.5106 5.67044 11.58 5.75894 11.6674C5.93778 11.844 6.03817 12.083 6.03817 12.3321C6.03817 12.5812 5.93778 12.8202 5.75894 12.9968L4.39067 14.3417C4.30219 14.429 4.19703 14.4983 4.08122 14.5456C3.96541 14.5928 3.84124 14.6172 3.71583 14.6172C3.59042 14.6172 3.46625 14.5928 3.35044 14.5456C3.23464 14.4983 3.12947 14.429 3.04099 14.3417C2.86215 14.1651 2.76176 13.9262 2.76176 13.6771C2.76176 13.428 2.86215 13.189 3.04099 13.0124L4.40837 11.6674ZM8.05208 13.9253C7.96354 13.8381 7.85835 13.7689 7.74255 13.7217C7.62675 13.6745 7.50261 13.6502 7.37724 13.6502C7.25186 13.6502 7.12772 13.6745 7.01192 13.7217C6.89612 13.7689 6.79094 13.8381 6.70239 13.9253L5.33589 15.2711C5.15657 15.4476 5.05586 15.6868 5.05586 15.9362C5.05586 16.1856 5.15657 16.4248 5.33589 16.6013C5.42438 16.6886 5.52954 16.7579 5.64535 16.8052C5.76116 16.8524 5.88533 16.8768 6.01074 16.8768C6.13614 16.8768 6.26031 16.8524 6.37612 16.8052C6.49193 16.7579 6.5971 16.6886 6.68558 16.6013L8.05208 15.2546C8.23118 15.078 8.33175 14.8388 8.33175 14.5895C8.33175 14.3402 8.23118 14.1019 8.05208 13.9253ZM10.3443 16.1814C10.2558 16.094 10.1506 16.0246 10.0347 15.9772C9.91883 15.9299 9.79455 15.9055 9.66904 15.9055C9.54353 15.9055 9.41926 15.9299 9.30337 15.9772C9.18748 16.0246 9.08226 16.094 8.99376 16.1814L7.62726 17.5281C7.44842 17.7047 7.34803 17.9437 7.34803 18.1928C7.34803 18.4419 7.44842 18.6808 7.62726 18.8574C7.71574 18.9447 7.82091 19.014 7.93671 19.0613C8.05252 19.1085 8.17669 19.1329 8.3021 19.1329C8.42751 19.1329 8.55168 19.1085 8.66749 19.0613C8.7833 19.014 8.88846 18.9447 8.97694 18.8574L10.3434 17.5107C10.5225 17.3342 10.623 17.0952 10.623 16.8461C10.623 16.5969 10.5225 16.3579 10.3434 16.1814M9.77082 0.253867C9.30462 0.1186 8.82471 0.0340508 8.33972 0.00173869L8.26006 0H7.96623C6.08841 0 4.28751 0.732783 2.95969 2.03715C1.63188 3.34151 0.88592 5.1106 0.88592 6.95525V8.7697C1.32342 8.42002 1.87757 8.24249 2.44082 8.27157C3.00406 8.30065 3.53622 8.53426 3.93399 8.92707C4.28181 9.27048 4.49422 9.69736 4.57034 10.1425C4.90611 10.0669 5.25492 10.067 5.59067 10.1426C5.92642 10.2183 6.24039 10.3676 6.50907 10.5793C6.77776 10.7911 6.99419 11.0598 7.14216 11.3654C7.29013 11.671 7.36581 12.0055 7.36352 12.3438C7.66547 12.3424 7.96469 12.3999 8.24389 12.5129C8.52308 12.6259 8.77669 12.7921 8.99003 13.002C9.20338 13.2119 9.37223 13.4613 9.48681 13.7357C9.60138 14.0102 9.65941 14.3042 9.65754 14.6008C9.95878 14.5994 10.2573 14.6567 10.5358 14.7696C10.8143 14.8824 11.0672 15.0485 11.2798 15.2581C11.7073 15.6801 11.9473 16.2512 11.9473 16.8465C11.9473 17.4418 11.7073 18.0129 11.2798 18.4349L11.0807 18.6314L12.2082 19.7303C12.387 19.9031 12.6278 20 12.8786 20C13.1295 20 13.3703 19.9031 13.5491 19.7303C13.9155 19.3739 13.9163 18.7966 13.5508 18.4392C13.4252 18.3169 13.3543 18.1506 13.3535 17.9769C13.3528 17.8032 13.4223 17.6363 13.5468 17.5129C13.6714 17.3895 13.8407 17.3198 14.0175 17.3191C14.1944 17.3183 14.3643 17.3867 14.4898 17.509C14.6686 17.6818 14.9094 17.7787 15.1603 17.7787C15.4111 17.7787 15.6519 17.6818 15.8307 17.509C15.9177 17.4245 15.9868 17.324 16.034 17.2131C16.0812 17.1023 16.1056 16.9833 16.1056 16.8632C16.1057 16.743 16.0815 16.6241 16.0345 16.5131C15.9874 16.4022 15.9185 16.3016 15.8316 16.217C15.7139 16.0931 15.6496 15.9293 15.6523 15.7599C15.6549 15.5905 15.7242 15.4286 15.8457 15.3083C15.9671 15.188 16.1313 15.1185 16.3037 15.1145C16.4762 15.1105 16.6435 15.1722 16.7706 15.2868C16.9496 15.4591 17.1903 15.5555 17.4409 15.5552C17.6916 15.5548 17.932 15.4578 18.1105 15.285C18.4858 14.9199 18.484 14.327 18.1256 13.9766L18.1229 13.9748L16.1289 12.0152C16.0117 11.8916 15.9479 11.7281 15.9509 11.5592C15.9539 11.3902 16.0236 11.2291 16.1452 11.1096C16.2668 10.9901 16.4309 10.9217 16.6029 10.9187C16.7748 10.9157 16.9413 10.9784 17.0671 11.0936L19.4 13.3828C19.8665 13.8375 20.6356 13.8418 21.04 13.448C21.4427 13.0559 21.4392 12.3117 20.9772 11.8604L20.9754 11.8587L15.1023 6.09019H11.3851L9.8965 7.23433C9.60306 7.45989 9.26726 7.62646 8.90828 7.7245C8.54929 7.82255 8.17417 7.85016 7.80432 7.80575C7.43447 7.76135 7.07715 7.6458 6.75278 7.4657C6.4284 7.28561 6.14332 7.04451 5.91382 6.75616C5.45012 6.17335 5.24092 5.43354 5.3322 4.69929C5.42347 3.96504 5.80775 3.29642 6.4006 2.84035L9.77082 0.253867Z" fill="url(#paint0_linear_136_536)"/>
<defs>
<linearGradient id="paint0_linear_136_536" x1="10.6667" y1="2.63073e-07" x2="19.5499" y2="18.0532" gradientUnits="userSpaceOnUse">
<stop stop-color="white"/>
<stop offset="1" stop-color="#252525"/>
</linearGradient>
</defs>
</svg>
