<svg width="19" height="19" viewBox="0 0 19 19" fill="none" xmlns="http://www.w3.org/2000/svg">
<path d="M0 18.6667C0 16.7807 0.749811 14.9719 2.08448 13.6384C3.41916 12.3048 5.22936 11.5556 7.11687 11.5556C9.00438 11.5556 10.8146 12.3048 12.1493 13.6384C13.4839 14.9719 14.2337 16.7807 14.2337 18.6667H0ZM7.11687 10.6667C4.16782 10.6667 1.77922 8.28 1.77922 5.33333C1.77922 2.38667 4.16782 0 7.11687 0C10.0659 0 12.4545 2.38667 12.4545 5.33333C12.4545 8.28 10.0659 10.6667 7.11687 10.6667ZM13.6671 12.6516C15.0279 13.001 16.2436 13.7705 17.1413 14.8505C18.0389 15.9305 18.5727 17.2659 18.6667 18.6667H16.013C16.013 16.3467 15.1234 14.2347 13.6671 12.6516ZM11.8674 10.6284C12.6129 9.9622 13.2091 9.14608 13.6169 8.23355C14.0247 7.32103 14.2349 6.3327 14.2337 5.33333C14.2358 4.11862 13.9248 2.92383 13.3308 1.864C14.3384 2.0663 15.2448 2.611 15.8959 3.40551C16.5471 4.20002 16.9028 5.19531 16.9026 6.22222C16.9027 6.85548 16.7673 7.48145 16.5056 8.05819C16.2439 8.63494 15.8619 9.14914 15.3851 9.56636C14.9083 9.98357 14.3478 10.2942 13.7411 10.4773C13.1345 10.6605 12.4956 10.712 11.8674 10.6284Z" fill="url(#paint0_linear_136_520)"/>
<defs>
<linearGradient id="paint0_linear_136_520" x1="9.33333" y1="2.45535e-07" x2="17.9458" y2="16.4089" gradientUnits="userSpaceOnUse">
<stop stop-color="white"/>
<stop offset="1" stop-color="#252525"/>
</linearGradient>
</defs>
</svg>
