<svg width="14" height="19" viewBox="0 0 14 19" fill="none" xmlns="http://www.w3.org/2000/svg">
<path d="M7.61813 6.92536H13.2461C13.1907 6.56412 12.9607 6.21153 12.5883 5.78L8.21238 0.837688C7.84778 0.414802 7.51497 0.159191 7.18182 0.097168V6.44985C7.18182 6.76673 7.33267 6.92536 7.61813 6.92536Z" fill="url(#paint0_linear_136_510)"/>
<path d="M2.45751 18.8889H10.8758C12.5169 18.8889 13.3333 17.9638 13.3333 16.1313V8.13181H7.59407C6.57941 8.13181 6.10387 7.59427 6.10387 6.46658V0H2.45751C0.824582 0 0 0.933731 0 2.76661V16.1313C0 17.9724 0.824582 18.8889 2.45751 18.8889ZM3.6149 11.9468C3.28987 11.9468 3.05988 11.6912 3.05988 11.3476C3.05988 11.0037 3.28987 10.7484 3.61456 10.7484H9.72621C10.0435 10.7484 10.2893 11.004 10.2893 11.3472C10.2893 11.6912 10.0435 11.9464 9.72655 11.9464L3.6149 11.9468ZM3.6149 15.3032C3.28987 15.3032 3.05988 15.0476 3.05988 14.704C3.05988 14.3604 3.28987 14.1048 3.61456 14.1048H9.72621C10.0435 14.1048 10.2893 14.3604 10.2893 14.704C10.2893 15.0476 10.0435 15.3032 9.72655 15.3032H3.6149Z" fill="url(#paint1_linear_136_510)"/>
<defs>
<linearGradient id="paint0_linear_136_510" x1="10.214" y1="0.097168" x2="12.2474" y2="5.96667" gradientUnits="userSpaceOnUse">
<stop stop-color="white"/>
<stop offset="1" stop-color="#252525"/>
</linearGradient>
<linearGradient id="paint1_linear_136_510" x1="6.66667" y1="1.81595e-07" x2="13.328" y2="15.2821" gradientUnits="userSpaceOnUse">
<stop stop-color="white"/>
<stop offset="1" stop-color="#252525"/>
</linearGradient>
</defs>
</svg>
